<?xml version="1.0" encoding="UTF-8"?><svg id="uuid-a7d9ec9e-824d-4e4e-af5d-c3348df1d757" xmlns="http://www.w3.org/2000/svg" viewBox="0 0 124.56 67.46"><defs><style>.uuid-cfb82c35-0eca-4cd5-95d1-60bbfe533de0{fill:#222221;}</style></defs><path class="uuid-cfb82c35-0eca-4cd5-95d1-60bbfe533de0" d="M0,50.1h14.33v4.03H6.22v2.72h7.89v4.15h-7.66v6.02H0v-16.92Z"/><path class="uuid-cfb82c35-0eca-4cd5-95d1-60bbfe533de0" d="M24.57,49.75c1.55,0,2.98.24,4.31.71.95.34,1.78.86,2.51,1.55s1.29,1.48,1.67,2.37c.52,1.23.79,2.64.79,4.22,0,1.32-.19,2.53-.58,3.63s-.96,2.02-1.73,2.76-1.65,1.31-2.63,1.7c-1.26.51-2.68.76-4.27.76s-2.99-.26-4.29-.77c-.93-.37-1.76-.89-2.48-1.58s-1.28-1.46-1.66-2.33c-.54-1.21-.81-2.61-.81-4.21,0-1.33.19-2.51.56-3.54s.93-1.94,1.68-2.7,1.56-1.35,2.45-1.75c1.23-.55,2.73-.82,4.48-.82ZM24.59,63.33c.55,0,1.02-.14,1.41-.42s.69-.75.9-1.4.32-1.61.32-2.88c0-.75-.05-1.45-.15-2.1s-.24-1.16-.44-1.54-.46-.68-.8-.9-.73-.33-1.2-.33c-.49,0-.94.14-1.33.43s-.71.8-.94,1.55-.35,1.76-.35,3.03c0,1.7.29,2.95.87,3.75.39.54.96.81,1.7.81Z"/><path class="uuid-cfb82c35-0eca-4cd5-95d1-60bbfe533de0" d="M35.55,50.1h10.64c.8,0,1.43.04,1.86.12.64.11,1.23.3,1.78.57s1.01.61,1.39,1.01.65.83.82,1.29.25.99.25,1.6c0,.52-.06.99-.18,1.41s-.27.77-.46,1.07-.41.55-.66.76c-.34.3-.74.55-1.18.76-.32.15-.8.32-1.44.5.64.15,1.17.35,1.59.6s.76.55,1.01.89.48.79.66,1.34c.11.32.27,1.01.49,2.07.32,1.55.54,2.53.67,2.93h-6.69l-.56-3.69c-.11-.76-.32-1.28-.64-1.57s-.81-.43-1.49-.43h-1.48v5.7h-6.39v-16.92ZM41.66,53.89v3.69h1.95c.78,0,1.32-.1,1.62-.29.5-.33.75-.83.75-1.5s-.21-1.17-.64-1.51c-.32-.26-.89-.39-1.72-.39h-1.95Z"/><path class="uuid-cfb82c35-0eca-4cd5-95d1-60bbfe533de0" d="M53.34,50.1h17.72v4.95h-5.66v11.98h-6.48v-11.98h-5.58v-4.95Z"/><path class="uuid-cfb82c35-0eca-4cd5-95d1-60bbfe533de0" d="M72.46,50.1h14.39v4.03h-8.29v2.39h7.92v3.97h-7.92v2.5h8.45v4.03h-14.55v-16.92Z"/><path class="uuid-cfb82c35-0eca-4cd5-95d1-60bbfe533de0" d="M103.45,50.1v5.29l-7.95,7.22h8.23v4.42h-15.5v-5.25l8.25-7.39h-7.95v-4.28h14.92Z"/><path class="uuid-cfb82c35-0eca-4cd5-95d1-60bbfe533de0" d="M109.72,50.1h8.86l5.98,16.92h-6.75l-1.11-3.69h-5.41l-1.03,3.69h-6.45l5.92-16.92ZM112.16,59.36h3.73l-1.86-5.47-1.86,5.47Z"/><polygon class="uuid-cfb82c35-0eca-4cd5-95d1-60bbfe533de0" points="76.78 23.95 72.26 33.19 64.57 11.62 58.87 11.62 51.19 33.19 46.66 23.95 43.38 23.95 34.57 45.43 61.72 45.43 88.88 45.43 80.07 23.95 76.78 23.95"/><path class="uuid-cfb82c35-0eca-4cd5-95d1-60bbfe533de0" d="M30.2,45.43c-.83-2.89-1.29-5.94-1.29-9.09C28.91,18.24,43.63,3.53,61.72,3.53s32.81,14.72,32.81,32.81c0,3.15-.46,6.2-1.29,9.09h3.67c.75-2.91,1.15-5.95,1.15-9.09C98.06,16.3,81.76,0,61.72,0S25.39,16.3,25.39,36.34c0,3.14.4,6.18,1.15,9.09h3.67Z"/></svg>