<?xml version="1.0" encoding="UTF-8"?>
<svg id="Capa_1" data-name="Capa 1" xmlns="http://www.w3.org/2000/svg" viewBox="0 0 50 50">
  <defs>
    <style>
      .cls-1 {
        fill: #fff;
      }

      .cls-1, .cls-2 {
        stroke-width: 0px;
      }

      .cls-2 {
        fill: #e84e0f;
      }
    </style>
  </defs>
  <rect class="cls-2" width="50" height="50"/>
  <g>
    <polygon class="cls-1" points="33.3 25.26 30.84 30.28 26.66 18.56 23.56 18.56 19.38 30.28 16.93 25.26 15.14 25.26 10.35 36.94 25.11 36.94 39.87 36.94 35.08 25.26 33.3 25.26"/>
    <path class="cls-1" d="M7.98,36.94c-.45-1.57-.7-3.23-.7-4.94,0-9.83,8-17.83,17.83-17.83s17.83,8,17.83,17.83c0,1.71-.25,3.37-.7,4.94h1.99c.41-1.58.63-3.24.63-4.94,0-10.89-8.86-19.75-19.75-19.75S5.36,21.11,5.36,32c0,1.71.22,3.36.63,4.94h1.99Z"/>
  </g>
</svg>