<svg viewBox="0 0 24 24" xmlns="http://www.w3.org/2000/svg" aria-hidden="true" focusable="false">
  <path d="M12.04 2C6.56 2 2.1 6.43 2.1 11.88c0 1.75.46 3.46 1.34 4.95L2 22l5.3-1.39a10 10 0 0 0 4.74 1.2h.01c5.48 0 9.95-4.44 9.95-9.9C22 6.43 17.53 2 12.04 2zm0 18.17a8.2 8.2 0 0 1-4.18-1.14l-.3-.18-3.15.83.84-3.07-.2-.31a8.14 8.14 0 0 1-1.25-4.32c0-4.47 3.68-8.11 8.22-8.11 4.54 0 8.24 3.64 8.24 8.11 0 4.48-3.7 8.12-8.22 8.12zm4.5-5.9c-.25-.12-1.47-.73-1.7-.81-.23-.08-.4-.12-.57.12-.17.24-.66.8-.81.97-.15.16-.3.18-.56.06-.25-.13-1.07-.39-2.03-1.24-.75-.66-1.26-1.49-1.4-1.74-.14-.24-.01-.37.11-.49.11-.1.25-.27.38-.4.12-.14.17-.24.26-.4.08-.16.04-.3-.02-.42-.06-.12-.56-1.35-.77-1.84-.2-.5-.41-.42-.57-.43h-.49c-.17 0-.44.06-.67.3-.23.24-.88.86-.88 2.1 0 1.23.9 2.43 1.02 2.6.12.16 1.77 2.84 4.37 3.87.62.27 1.1.43 1.47.55.62.2 1.2.17 1.65.1.5-.08 1.47-.6 1.68-1.17.21-.57.21-1.05.15-1.16-.07-.1-.24-.16-.49-.28z"/>
</svg>
