<svg viewBox="0 0 16 16" xmlns="http://www.w3.org/2000/svg" aria-hidden="true" focusable="false">
  <path d="M8 0a8 8 0 1 0 0 16A8 8 0 0 0 8 0zm4.938 6.5h-2.07a12.8 12.8 0 0 0-.5-2.625A6.52 6.52 0 0 1 12.938 6.5zM8 1.5c.705 0 1.546 1.224 1.92 3.5H6.08C6.454 2.724 7.295 1.5 8 1.5zM1.5 8c0-.35.03-.693.086-1.027h2.289A13.8 13.8 0 0 0 3.813 8c0 .35.03.693.062 1.027H1.586A6.49 6.49 0 0 1 1.5 8zm.562 2.5h2.07c.113.907.29 1.797.5 2.625A6.52 6.52 0 0 1 2.062 10.5zM8 14.5c-.705 0-1.546-1.224-1.92-3.5h3.84c-.374 2.276-1.215 3.5-1.92 3.5zm2.17-4.5H5.83A12.8 12.8 0 0 1 5.75 8c0-.68.03-1.354.08-2h4.34c.05.646.08 1.32.08 2 0 .68-.03 1.354-.08 2zm.198 3.125c.21-.828.387-1.718.5-2.625h2.07a6.52 6.52 0 0 1-2.57 2.625zM11.938 9.027c.032-.334.062-.677.062-1.027 0-.35-.03-.693-.062-1.027h2.289c.056.334.086.677.086 1.027 0 .35-.03.693-.086 1.027z"/>
</svg>
