<svg viewBox="0 0 16 16" xmlns="http://www.w3.org/2000/svg" aria-hidden="true" focusable="false">
  <path d="M3.654 1.328a.678.678 0 0 1 .737-.149l2.522 1.01c.29.116.445.433.37.731l-.547 2.19a.678.678 0 0 1-.645.513l-1.06.045a11.745 11.745 0 0 0 5.355 5.355l.045-1.06a.678.678 0 0 1 .513-.645l2.19-.547a.678.678 0 0 1 .731.37l1.01 2.522a.678.678 0 0 1-.148.737l-1.2 1.2a1.745 1.745 0 0 1-1.846.402c-1.968-.656-4.353-2.125-6.52-4.292C2.875 8.353 1.406 5.968.75 4A1.745 1.745 0 0 1 1.152 2.154z"/>
</svg>
